<?xml version="1.0" encoding="UTF-8"?>
<svg id="Layer_1" xmlns="http://www.w3.org/2000/svg" version="1.1" viewBox="0 0 300 300">
  <!-- Generator: Adobe Illustrator 29.1.0, SVG Export Plug-In . SVG Version: 2.1.0 Build 142)  -->
  <path d="M180.5,296.9c9.8,0,18.4-8.5,18.4-18.4v-42.9h12.3c7.4,0,12.3-4.9,12.3-12.3v-122.6H76.2v122.6c0,7.4,4.9,12.3,12.3,12.3h12.3v42.9c0,9.8,8.5,18.4,18.4,18.4s18.4-8.5,18.4-18.4v-42.9h24.6v42.9c0,9.8,8.5,18.4,18.4,18.4h0Z"/>
  <path d="M254.1,223.3c9.8,0,18.4-8.5,18.4-18.4v-85.9c0-9.8-8.5-18.4-18.4-18.4s-18.4,8.6-18.4,18.4v85.9c0,9.8,8.5,18.4,18.4,18.4h0Z"/>
  <path d="M45.6,223.3c9.8,0,18.4-8.5,18.4-18.4v-85.9c0-9.8-8.5-18.4-18.4-18.4s-18.4,8.6-18.4,18.4v85.9c0,9.8,8.5,18.4,18.4,18.4h0Z"/>
  <path d="M208.7,5c-2.5-2.5-6.1-2.5-8.5,0l-16.5,16.4-.8.8c-9.8-4.9-20.7-7.4-32.9-7.4h-.4c-12.2,0-23.1,2.5-32.9,7.4l-.8-.8-16.5-16.4c-2.5-2.5-6.1-2.5-8.5,0s-2.5,6.1,0,8.5l15.9,16c-5.1,3.4-9.8,7.6-13.8,12.4-9.7,11.5-15.9,26.5-16.8,42.6v3.8h147.2v-3.8c-.9-16.2-7.1-31.2-16.8-42.6-4-4.8-8.7-9-13.8-12.4l16-16c2.5-2.5,2.5-6.1,0-8.5h0ZM119.1,66.9c-5.1,0-9.2-4.1-9.2-9.2s4.1-9.2,9.2-9.2,9.2,4.1,9.2,9.2-4.1,9.2-9.2,9.2ZM180.5,66.9c-5.1,0-9.2-4.1-9.2-9.2s4.1-9.2,9.2-9.2,9.2,4.1,9.2,9.2-4.1,9.2-9.2,9.2Z"/>
</svg>