<?xml version="1.0" encoding="UTF-8"?>
<svg id="Layer_1" xmlns="http://www.w3.org/2000/svg" version="1.1" viewBox="0 0 512 512">
  <!-- Generator: Adobe Illustrator 29.1.0, SVG Export Plug-In . SVG Version: 2.1.0 Build 142)  -->
  <path d="M432,32H80c-26.5,0-48,21.5-48,48v352c0,26.5,21.5,48,48,48h352c26.5,0,48-21.5,48-48V80c0-26.5-21.5-48-48-48ZM159,384.5c-5.5,9.6-17.8,12.8-27.3,7.3-9.6-5.5-12.8-17.8-7.3-27.3l14.3-24.7c16.1-4.9,29.3-1.1,39.6,11.4l-19.3,33.3ZM297.9,330.6H116c-11,0-20-9-20-20s9-20,20-20h51l65.4-113.2-20.5-35.4c-5.5-9.6-2.2-21.8,7.3-27.3,9.6-5.5,21.8-2.2,27.3,7.3l8.9,15.4,8.9-15.4c5.5-9.6,17.8-12.8,27.3-7.3,9.6,5.5,12.8,17.8,7.3,27.3l-85.8,148.6h62.1c20.2,0,31.5,23.7,22.7,40h0ZM396,330.6h-29l19.6,33.9c5.5,9.6,2.2,21.8-7.3,27.3-9.6,5.5-21.8,2.2-27.3-7.3-32.9-56.9-57.5-99.7-74-128.1-16.7-29-4.8-58,7.1-67.8,13.1,22.7,32.7,56.7,58.9,102h52c11,0,20,9,20,20s-9,20-20,20h0Z"/>
</svg>