<?xml version="1.0" encoding="UTF-8"?>
<svg id="Layer_1" xmlns="http://www.w3.org/2000/svg" version="1.1" viewBox="0 0 640 640">
  <!-- Generator: Adobe Illustrator 29.1.0, SVG Export Plug-In . SVG Version: 2.1.0 Build 142)  -->
  <path d="M392.3,67.1c-16.9-4.9-34.4,5-39.3,21.8l-127.1,444.7c-4.9,16.9,5,34.4,21.8,39.3,16.9,4.9,34.4-5,39.3-21.8l127.1-444.7c4.9-16.9-5-34.4-21.8-39.3h0ZM472.3,186.3c-12.4,12.4-12.4,32.6,0,45l88.7,88.8-88.8,88.8c-12.4,12.4-12.4,32.6,0,45s32.6,12.4,45,0l111.2-111.2c12.4-12.4,12.4-32.6,0-45l-111.2-111.2c-12.4-12.4-32.6-12.4-45,0h0ZM167.8,186.3c-12.4-12.4-32.6-12.4-45,0L11.7,297.5c-12.4,12.4-12.4,32.6,0,45l111.2,111.2c12.4,12.4,32.6,12.4,45,0,12.4-12.4,12.4-32.6,0-45l-88.8-88.7,88.8-88.8c12.4-12.4,12.4-32.6,0-45h0Z"/>
</svg>