<?xml version="1.0" encoding="UTF-8"?>
<svg id="Layer_1" xmlns="http://www.w3.org/2000/svg" version="1.1" viewBox="0 0 512 512">
  <!-- Generator: Adobe Illustrator 29.1.0, SVG Export Plug-In . SVG Version: 2.1.0 Build 142)  -->
  <path d="M480,96c0-35.3-28.7-64-64-64H96c-35.3,0-64,28.7-64,64v320c0,35.3,28.7,64,64,64h320c35.3,0,64-28.7,64-64V96ZM212.9,444.9c-33.7,0-53.2-17.4-63.2-38.5l34.3-20.7c6.6,11.7,12.6,21.6,27.1,21.6s22.6-5.4,22.6-26.5v-143.1h42.1v143.7c0,43.6-25.6,63.5-62.9,63.5h0ZM298.7,401.9l34.3-19.8c9,14.7,20.8,25.6,41.5,25.6s28.6-8.7,28.6-20.8-11.4-19.5-30.7-28l-10.5-4.5c-30.4-12.9-50.5-29.2-50.5-63.5s24.1-55.6,61.6-55.6,46,9.3,59.8,33.7l-32.8,21c-7.2-12.9-15-18-27.1-18s-20.1,7.8-20.1,18,7.8,17.7,25.9,25.6l10.5,4.5c35.8,15.3,55.9,31,55.9,66.2s-29.8,58.6-69.7,58.6-64.4-18.6-76.7-43h0Z"/>
</svg>