<?xml version="1.0" encoding="UTF-8"?>
<svg id="Layer_1" xmlns="http://www.w3.org/2000/svg" version="1.1" viewBox="0 0 640 640">
  <!-- Generator: Adobe Illustrator 29.1.0, SVG Export Plug-In . SVG Version: 2.1.0 Build 142)  -->
  <path d="M2.2,112c0-26.5,21.4-48,47.7-48h317.8c26.3,0,47.7,21.5,47.7,48v48h50.3c16.9,0,33.1,6.7,45,18.7l76.8,77.3c11.9,12,18.6,28.3,18.6,45.3v114.7c17.6,0,31.8,14.3,31.8,32s-14.2,32-31.8,32h-31.8c0,53-42.7,96-95.3,96s-95.3-43-95.3-96h-127.1c0,53-42.7,96-95.3,96s-95.3-43-95.3-96h-15.9c-26.3,0-47.7-21.5-47.7-48V112ZM415.3,320h127.1v-18.7l-76.8-77.3h-50.3v96ZM161.1,528c26.3,0,47.7-21.5,47.7-48s-21.3-48-47.7-48-47.7,21.5-47.7,48,21.3,48,47.7,48ZM526.6,480c0-26.5-21.3-48-47.7-48s-47.7,21.5-47.7,48,21.3,48,47.7,48,47.7-21.5,47.7-48ZM177,144v48h-47.7c-8.7,0-15.9,7.2-15.9,16v32c0,8.8,7.1,16,15.9,16h47.7v48c0,8.8,7.1,16,15.9,16h31.8c8.7,0,15.9-7.2,15.9-16v-48h47.7c8.7,0,15.9-7.2,15.9-16v-32c0-8.8-7.2-16-15.9-16h-47.7v-48c0-8.8-7.1-16-15.9-16h-31.8c-8.7,0-15.9,7.2-15.9,16Z"/>
</svg>