<?xml version="1.0" encoding="UTF-8"?>
<svg id="Layer_1" xmlns="http://www.w3.org/2000/svg" version="1.1" viewBox="0 0 512 512">
  <!-- Generator: Adobe Illustrator 29.1.0, SVG Export Plug-In . SVG Version: 2.1.0 Build 142)  -->
  <path d="M34.5,97.8C34.5,45.4,77.1,2.9,129.5,2.9h316.4c17.5,0,31.6,14.1,31.6,31.6v316.4c0,17.5-14.1,31.6-31.6,31.6v63.3c17.5,0,31.6,14.1,31.6,31.6s-14.1,31.6-31.6,31.6H129.5c-52.4,0-94.9-42.5-94.9-94.9V97.8ZM97.8,414.2c0,17.5,14.1,31.6,31.6,31.6h253.1v-63.3h-253.1c-17.5,0-31.6,14.1-31.6,31.6ZM350.9,113.6c0-34.9-35.4-63.3-79.1-63.3s-79.1,28.4-79.1,63.3,12.5,39.1,31.6,50.6v12.7c0,8.7,7.1,15.8,15.8,15.8h63.3c8.7,0,15.8-7.1,15.8-15.8v-12.7c19.2-11.6,31.6-30,31.6-50.6ZM240.2,97.8c8.7,0,15.8,7.1,15.8,15.8s-7.1,15.8-15.8,15.8-15.8-7.1-15.8-15.8,7.1-15.8,15.8-15.8ZM287.6,113.6c0-8.7,7.1-15.8,15.8-15.8s15.8,7.1,15.8,15.8-7.1,15.8-15.8,15.8-15.8-7.1-15.8-15.8ZM167.3,209.8c-8-3.5-17.3.3-20.8,8.3s.3,17.3,8.3,20.8l76.8,32.9-76.8,32.9c-8,3.5-11.8,12.8-8.3,20.8s12.8,11.8,20.8,8.3l104.5-44.8,104.5,44.8c8,3.5,17.3-.3,20.8-8.3s-.3-17.3-8.3-20.8l-76.8-32.9,76.8-32.9c8-3.5,11.8-12.8,8.3-20.8s-12.8-11.8-20.8-8.3l-104.5,44.8-104.5-44.8Z"/>
</svg>