<?xml version="1.0" encoding="UTF-8"?>
<svg id="Layer_1" xmlns="http://www.w3.org/2000/svg" version="1.1" viewBox="0 0 512 512">
  <!-- Generator: Adobe Illustrator 29.1.0, SVG Export Plug-In . SVG Version: 2.1.0 Build 142)  -->
  <path d="M256,507.7c139,0,251.7-112.7,251.7-251.7S395,4.3,256,4.3,4.3,117,4.3,256s112.7,251.7,251.7,251.7ZM171.2,166.8c7.8-21.9,28.6-36.7,51.9-36.7h57.3c34.3,0,62,27.8,62,62s-11.9,42.8-31.2,53.9l-31.8,18.2c-.2,12.8-10.7,23.2-23.6,23.2s-23.6-10.5-23.6-23.6v-13.3c0-8.5,4.5-16.2,11.9-20.5l43.6-25c4.6-2.7,7.5-7.6,7.5-12.9,0-8.3-6.7-14.8-14.8-14.8h-57.3c-3.3,0-6.3,2.1-7.4,5.2l-.4,1.2c-4.3,12.3-17.9,18.7-30.1,14.4s-18.7-17.9-14.4-30.1l.4-1.2h0ZM224.5,350.4c0-17.4,14.1-31.5,31.5-31.5s31.5,14.1,31.5,31.5-14.1,31.5-31.5,31.5-31.5-14.1-31.5-31.5Z"/>
</svg>