<?xml version="1.0" encoding="UTF-8"?>
<svg id="Capa_1" xmlns="http://www.w3.org/2000/svg" version="1.1" viewBox="0 0 678 678">
  <!-- Generator: Adobe Illustrator 29.1.0, SVG Export Plug-In . SVG Version: 2.1.0 Build 142)  -->
  <path d="M609.8,58.3H68.4c-16.2,0-29.4,13.3-29.4,29.4v502.6c0,16.2,13.3,29.4,29.4,29.4h541.3c16.2,0,29.4-13.3,29.4-29.4V87.7c0-16.2-13.3-29.4-29.4-29.4,0,0,0,0,0,0ZM250.7,266.7l-89.3,89.3c-7.7,7.7-19,10.4-28.5,6.4-19.5-8.1-22.6-31.8-9.5-44.9l50.8-50.8c10.4-10.4,10.4-27.6,0-38.5l-51.3-50.8c-13.1-13.1-10-36.8,9.5-44.9,10-4.1,21.3-1.4,28.5,6.4l89.3,89.3c5.4,5.4,8.1,12.3,8.1,19s-2.3,14-7.7,19.5h0ZM449.7,363.8h-163.2c-15,0-27.2-12.3-27.2-27.2s12.3-27.2,27.2-27.2h163.2c15,0,27.2,12.3,27.2,27.2s-12.3,27.2-27.2,27.2h0Z"/>
</svg>